<svg width="167" height="42" viewBox="0 0 167 42" fill="none" xmlns="http://www.w3.org/2000/svg">
<g clip-path="url(#clip0_512_1069)">
<path d="M46.6067 4.56937V9.28366H53.3495V4.56937H55.7769V16.2678H53.3495V11.2043H46.6067V16.2678H44.1793V4.56937H46.6067Z" fill="white"/>
<path d="M95.8737 4.56937V9.28366H100.729V4.56937H103.156V16.2678H100.729V11.2043H95.8737V16.2678H93.5363V4.56937H95.8737Z" fill="white"/>
<path d="M80.77 4.56937V6.4027H75.5556V9.28366H80.3204V11.117H75.5556V14.4345H80.8599V16.2678H73.1282V4.56937H80.77Z" fill="white"/>
<path d="M91.108 6.83835C88.846 5.73311 85.7902 6.02121 84.9317 8.65248C84.5415 9.84852 84.6233 11.7273 85.231 12.8517C86.3854 14.9871 89.0888 14.9015 91.108 14.0835C91.1494 14.431 91.678 15.5825 91.5189 15.8313C91.3723 16.06 89.6866 16.4014 89.345 16.4302C84.9433 16.8047 81.8561 14.3542 82.1204 9.93844C82.4135 5.03994 87.3734 3.19001 91.6106 5.09145L91.108 6.83748V6.83835Z" fill="white"/>
<path d="M71.5999 4.56937V6.49H68.0937V16.2678H65.7562V6.49H62.3398V4.56937H71.5999Z" fill="white"/>
<path d="M60.8115 4.56937H58.474V16.2678H60.8115V4.56937Z" fill="white"/>
<path d="M13.1627 16.1805C13.5718 16.0862 13.9692 15.3843 14.3782 15.3092C15.0732 15.1818 16.2761 15.2176 16.9881 15.3031C17.2515 15.3346 17.3315 15.4882 17.5419 15.5511C17.8799 15.6523 18.2189 15.407 18.2917 15.9579C18.3376 16.3036 18.3214 19.1558 18.2414 19.3216C18.2216 19.3627 18.0786 19.498 18.0634 19.498H13.2985L13.1636 19.367V16.1805H13.1627Z" fill="white"/>
<path d="M25.1018 12.1847C25.1468 12.2118 25.1495 12.3759 25.2654 12.4134C25.439 12.4702 25.6736 12.3872 25.8669 12.4431C25.9865 12.4772 26.0521 12.6369 26.1717 12.671C26.7533 12.8368 27.3575 12.8692 27.8798 13.1241C28.2323 13.2961 28.5523 13.1398 28.8337 13.2096C28.9272 13.2323 28.92 13.4192 29.0414 13.4611C29.2572 13.5344 29.5799 13.42 29.8217 13.4916C29.9521 13.53 30.0061 13.6976 30.2011 13.7343C30.47 13.7858 30.8116 13.6915 31.0939 13.7404C31.3204 13.7797 31.4823 13.9613 31.8185 13.9971C32.7085 14.0914 36.0601 14.1464 36.8522 13.9962C37.0518 13.9578 37.1057 13.7736 37.3044 13.7369C37.5471 13.6924 37.8537 13.7902 38.0947 13.7186C38.2673 13.6671 38.9793 13.2297 39.0332 13.2131C39.7902 12.9765 40.5229 12.3829 41.1873 12.1821C41.3141 12.1437 42.0162 12.1323 42.1394 12.1638C42.2212 12.1847 42.2302 12.3261 42.3021 12.3707C42.4406 12.4571 42.927 12.657 42.9854 12.7146C43.0052 12.7338 43.2551 13.1616 43.2632 13.1869C43.31 13.3406 43.3144 13.9648 43.2812 14.1272C43.2371 14.3428 42.731 15.0465 42.5638 15.2638C41.912 16.1124 40.8313 16.8973 39.8747 17.4586C39.3992 17.738 38.9532 17.9737 38.359 18.1649C37.2577 18.5202 35.0595 18.872 33.8827 18.7158C32.1682 18.4879 30.4798 18.0409 28.8346 17.6812C28.582 17.6262 28.2907 17.7135 28.0614 17.6463C26.935 17.3137 25.7464 16.9741 24.6092 16.6336C24.3646 16.5603 24.0473 16.6711 23.836 16.6179C23.7416 16.5943 23.7488 16.4049 23.6283 16.3665C23.2606 16.2477 22.4236 16.1857 22.0379 16.0749C21.0427 15.7876 20.0304 15.3564 19.036 15.0622C18.8122 14.9958 18.5416 15.0936 18.3519 15.0473C18.2593 15.0246 18.2665 14.8378 18.1442 14.7959C17.9105 14.7165 17.5284 14.8361 17.2748 14.7793C17.2281 14.7688 17.1274 14.5584 16.7156 14.5218C15.7024 14.431 14.0518 14.4205 13.2301 15.0447C13.1294 15.1215 13.1887 15.2403 13.142 15.283C13.0521 15.3669 12.7833 15.5065 12.6403 15.71C12.1584 16.397 11.8627 17.2229 11.1875 17.7947C10.5734 18.315 10.3523 18.2958 9.65103 18.4853C9.3058 18.5787 9.19881 18.8144 8.73581 18.6896C8.60276 18.6538 8.49847 18.501 8.33754 18.4661C7.87004 18.3631 7.71811 18.4425 7.2605 18.157C6.75165 17.8392 5.99646 16.8693 5.88677 16.3062C5.41298 13.8722 6.99978 11.5605 9.27523 10.6115C9.81735 10.3854 10.3415 10.4256 10.8548 10.3112C11.0508 10.2676 11.138 10.0964 11.4086 10.0633C12.0802 9.97946 14.9131 9.96549 15.5433 10.0729C17.0788 10.3339 18.6135 10.5862 20.1302 10.8568C21.4787 11.0978 23.0727 11.7587 24.3772 12.1454C24.5966 12.21 24.9688 12.1009 25.1054 12.183L25.1018 12.1847Z" fill="white"/>
<path d="M0.441643 19.4977C0.18362 19.2428 0.149457 18.8412 0.123385 18.4972C-0.0941812 15.646 0.00920763 11.6126 0.18362 8.7308C0.214187 8.22532 0.2951 6.95071 0.39759 6.44698C0.445239 6.21389 0.84441 5.44912 0.918131 5.20555C1.21122 4.24 1.6904 3.52587 2.46717 2.69126C5.03031 -0.0631078 9.60549 -0.701284 13.0785 0.766259C15.1939 1.55023 16.7186 3.03698 17.5287 5.0877C17.5961 5.25881 18.0034 6.055 18.0169 6.11349C18.0762 6.3719 17.9827 6.72984 18.0393 7.03627C18.0798 7.25191 18.2884 7.46754 18.2884 7.49373V9.58897C17.7417 9.98009 17.1007 9.53223 16.5236 9.46937C15.585 9.36635 14.516 9.36985 13.5675 9.28342C13.4327 9.27119 13.2978 9.24239 13.1765 9.18389C13.1207 8.80762 13.216 8.41302 13.1432 8.03762C13.1009 7.82111 12.9346 7.67008 12.8987 7.48937C12.8025 7.00397 12.8609 6.8154 12.5705 6.32389C12.1291 5.57746 11.6193 5.19158 10.8012 5.0065C10.6978 4.98293 10.7392 4.78214 10.5153 4.74111C10.1881 4.68087 8.07174 4.71579 7.8326 4.83103C7.78675 4.85285 7.77776 4.96809 7.74809 4.98031C7.51074 5.07897 7.05673 5.1942 6.82388 5.3496C6.46517 5.58968 6.04532 6.11873 5.84124 6.49325C5.52388 7.07556 5.63626 7.45095 5.52118 8.01405C5.48882 8.16945 5.34317 8.26199 5.34317 8.2777V19.365L5.20832 19.496H0.441643V19.4977Z" fill="white"/>
<path d="M5.34109 33.6845C5.34648 33.7072 5.48673 33.7919 5.5191 33.9482C5.58113 34.2511 5.44538 34.6082 5.58203 34.9321C5.62069 35.0246 5.75105 35.0307 5.76453 35.0595C5.97671 35.5213 6.00907 35.8863 6.45139 36.3158C6.86855 36.7209 7.23265 36.7767 7.69925 36.9644C7.78286 36.9985 7.76938 37.1024 7.89075 37.1469C8.23418 37.2717 10.3712 37.2778 10.6724 37.1321C10.7236 37.1076 10.7182 36.9784 10.7982 36.9601C11.5993 36.7846 11.6029 36.6798 12.1162 36.1167C12.7671 35.4035 12.7231 35.3703 12.8975 34.4746C12.9298 34.3087 13.1627 34.0398 13.1627 33.9464V22.5972L13.2975 22.4662H18.0624C18.0777 22.4662 18.2206 22.6007 18.2404 22.6426L18.2926 34.2144C17.9536 34.7566 18.1227 35.3712 18.0157 35.8505C17.9995 35.9221 17.8305 35.9116 17.7855 36.0757C17.2047 38.2137 16.0477 39.5975 14.1615 40.6756C13.8486 40.8546 13.1348 41.306 12.8291 41.3933C11.4042 41.8001 9.46046 42.1222 7.90064 41.9371C7.58418 41.8996 7.48618 41.7163 7.26952 41.677C6.99711 41.6272 6.64559 41.7267 6.39206 41.6717C6.31654 41.6552 6.32283 41.5085 6.22124 41.471C6.00008 41.3871 5.77532 41.45 5.58383 41.3933C3.64551 40.8188 1.84564 38.7585 0.955601 37.2036C-0.465771 32.8342 0.335268 27.8379 0.123995 23.1201C0.10062 22.9839 0.363138 22.4671 0.440455 22.4671H5.20533L5.34019 22.5981V33.6854L5.34109 33.6845Z" fill="white"/>
<path d="M32.357 22.4662C32.4218 22.4819 32.5908 22.667 32.8272 22.7081C33.3037 22.791 33.6831 22.8006 34.1317 23.0136C35.2411 23.54 36.6086 24.6147 37.201 25.7077C39.0108 29.0462 37.4824 33.1642 33.7721 34.492C32.1628 35.0674 28.2907 34.9251 26.4189 34.8683C26.2463 34.8631 26.0953 34.8002 25.9289 34.7767V41.3679C25.9289 41.3924 25.7896 41.6063 25.7491 41.6298C25.6826 41.6779 25.6062 41.67 25.5298 41.6787C24.7179 41.7756 22.0047 41.7826 21.2045 41.6779C21.0858 41.6621 20.8044 41.5661 20.8044 41.4552V22.5981L20.9393 22.4671H32.357V22.4662ZM31.8931 27.1491C31.8338 27.1124 31.8221 26.9658 31.716 26.9317C31.6216 26.9012 30.9914 26.8427 30.8278 26.8313C29.2113 26.7231 27.5301 26.9806 25.9298 26.7431V30.7599C27.8529 30.5032 29.8496 30.8612 31.7727 30.5373C32.0442 30.2151 32.4649 30.1078 32.6618 29.6503C32.8191 29.2845 32.7697 28.1731 32.6213 27.796C32.473 27.4189 32.1799 27.3254 31.8922 27.1491H31.8931Z" fill="white"/>
<path d="M73.1075 23.0136C73.7881 23.2877 75.4324 24.3179 76.0626 24.8566C76.3333 25.0879 77.1999 25.9758 76.9545 26.3119L73.7872 29.2766C73.3862 29.3561 73.5427 29.1597 73.4357 29.0243C73.0275 28.5058 72.2418 27.7934 71.6835 27.4948C70.5129 26.8689 68.5171 26.6576 67.1505 26.9186C67.0408 26.9396 66.0231 27.4014 65.8559 27.4948C65.0027 27.9706 63.8816 29.2697 63.6173 30.1217C63.5508 30.3365 63.6425 30.5827 63.5957 30.7852C63.5823 30.8455 63.4483 30.8455 63.4267 30.9144C63.2892 31.3544 63.2595 32.5793 63.3863 33.0201C63.4411 33.2105 63.5841 33.2113 63.5957 33.2646C63.6407 33.4698 63.5427 33.7439 63.6119 33.9351C63.6236 33.9682 63.8655 34.4135 63.9167 34.5078C64.3896 35.379 65.1475 36.1709 66.0366 36.644C66.9258 37.1172 69.1617 37.4786 70.2612 37.1809C70.4329 37.1347 70.4185 36.974 70.494 36.9583C71.4974 36.7497 71.9595 36.4948 72.7866 35.8164C73.0059 35.6366 73.4716 35.0028 73.7117 35.029C73.9517 35.0551 76.3306 37.6532 76.8205 37.8671C77.0804 38.3342 76.8421 38.2827 76.6344 38.48C75.4639 39.5887 74.4147 40.4958 72.8837 41.1279C71.6088 41.6543 68.6807 42.1938 67.244 41.9293C67.0552 41.8944 66.9482 41.7285 66.772 41.6892C66.4664 41.6202 66.0933 41.7294 65.8191 41.67C65.7444 41.6534 65.7498 41.5067 65.6482 41.4692C65.3722 41.3644 65.1052 41.3252 64.7627 41.1968C61.777 40.0776 59.8279 38.2181 58.7212 35.2778C58.2932 34.1411 58.2429 34.0119 58.2078 32.7207C58.189 32.0223 58.0748 30.6656 58.2051 30.0196C58.2438 29.8301 58.4191 29.776 58.456 29.652C58.5117 29.4661 58.4344 29.2601 58.491 29.075C58.6897 28.4193 59.4656 27.0828 59.9169 26.462C62.8028 22.4881 68.4056 21.1218 73.1066 23.0136H73.1075Z" fill="white"/>
<path d="M43.1454 22.4662C43.176 22.4758 43.505 22.9027 43.5293 22.9665C43.6066 23.1716 43.7505 23.5077 43.8008 23.6631C44.1056 24.5929 44.4355 25.52 44.8761 26.4603C45.1152 26.971 45.5063 27.9086 45.6888 28.4647C45.9181 29.1649 46.2723 29.8703 46.4979 30.56C46.9088 31.8154 47.45 33.1022 47.8797 34.3716C47.9211 34.4938 48.1135 34.4816 48.1369 34.575C48.1746 34.7251 48.1171 34.9312 48.1728 35.1355C48.2178 35.2996 48.3823 35.2839 48.4012 35.3624C48.4605 35.6113 48.3922 35.9386 48.6295 36.1735L48.973 35.4576C49.8217 33.3388 50.6551 31.2051 51.4867 29.0828C51.8067 28.2648 52.1618 27.5751 52.4783 26.8139C53.0267 25.4947 53.4286 24.1651 53.9365 22.9062C53.9482 22.8774 54.2638 22.4662 54.2926 22.4662H59.2822C59.2462 22.6819 59.3352 23.0005 59.284 23.1908C59.2597 23.2825 59.0682 23.2712 59.0269 23.3943C58.8605 23.8866 58.6645 24.283 58.491 24.7073C56.3864 29.8528 54.1379 35.4367 51.7366 40.6922C51.5865 41.0205 51.5784 41.6167 51.0614 41.6787C49.5205 41.8621 47.5992 41.5268 46.016 41.6787L45.7167 41.5329C45.455 40.976 45.1817 40.4067 44.9399 39.8428C44.565 38.9671 44.1964 38.0688 43.8602 37.2246C43.3945 36.0574 42.873 34.8439 42.455 33.6094C42.4136 33.4863 42.2221 33.5003 42.1987 33.4051C42.0441 32.7757 41.8221 32.2816 41.6431 31.6958C41.5002 31.2252 41.0291 30.5739 40.87 30.0885C40.1283 27.8248 38.9991 25.5794 38.1117 23.2511C38.0767 23.1585 37.6335 22.468 38.0191 22.468H43.1436L43.1454 22.4662Z" fill="white"/>
<path d="M124.765 33.9621C125.099 35.1451 125.622 36.5044 125.817 37.7816L126.17 38.6162C126.379 38.2844 126.277 37.827 126.349 37.5424C126.372 37.4525 126.565 37.4594 126.608 37.3407C126.679 37.1417 126.57 36.8562 126.619 36.6694C126.643 36.5777 126.836 36.5847 126.878 36.4677C126.939 36.2931 126.854 36.0626 126.892 35.8828C126.907 35.8129 127.077 35.8234 127.122 35.6584C127.367 34.7618 127.686 33.9883 127.951 33.1432C128.02 32.9259 127.919 32.6631 127.967 32.4789C127.99 32.389 128.184 32.3951 128.225 32.2772C128.289 32.0965 128.194 31.8582 128.236 31.6923C128.26 31.6015 128.456 31.6076 128.495 31.4915C128.596 31.199 128.563 31.0698 128.728 30.6674C128.831 30.4133 128.715 30.1331 129.095 30.0632C129.285 30.0283 130.351 30.0336 130.487 30.1025C130.624 30.1715 130.641 30.3688 130.722 30.4901C130.768 30.5582 130.915 30.5678 130.936 30.6464C130.979 30.8105 130.899 31.0506 130.936 31.2392C130.973 31.4278 131.15 31.4819 131.187 31.6059C131.28 31.9175 131.362 32.1882 131.456 32.4797C131.678 33.1747 131.795 34.0494 132.027 34.7217C132.067 34.8395 132.263 34.8325 132.285 34.9233C132.324 35.0787 132.255 35.3022 132.301 35.5004C132.498 36.3411 133.078 37.2106 133.116 38.1133L133.452 38.7035C133.321 38.2521 133.59 38.0042 133.684 37.6637C134.318 35.3773 134.891 33.0795 135.591 30.8725C135.669 30.629 135.513 30.264 135.882 30.1069C136.101 30.0135 137.636 30.0074 137.683 30.2055C137.765 30.512 137.498 30.6717 137.426 30.9092C137.099 31.9952 136.887 33.1109 136.575 34.1856C136.077 35.8976 135.5 37.5398 134.998 39.202C134.861 39.6533 134.821 40.4102 134.713 40.8267C134.689 40.9183 134.493 40.9105 134.454 41.0283C134.388 41.2221 134.545 41.581 134.293 41.6613L132.414 41.5906L129.721 33.1205C129.477 33.2969 129.643 33.6033 129.569 33.8434C128.854 36.1674 127.886 38.5254 127.177 40.8625C127.092 41.1453 127.261 41.5801 126.752 41.6717C126.569 41.7049 125.167 41.6936 125.085 41.636C125.067 41.3182 124.823 41.0423 124.753 40.8232C124.515 40.0776 124.426 39.1321 124.179 38.4093C124.138 38.2914 123.942 38.2984 123.92 38.2085C123.86 37.971 123.969 37.6567 123.847 37.3407C123.707 36.9784 123.731 36.9967 123.634 36.5838C123.47 35.8775 123.053 35.063 122.864 34.3637C122.56 33.2428 122.269 32.0878 122.016 30.9965C121.967 30.7878 121.588 30.4561 121.777 30.1619C121.865 30.0248 123.587 29.9803 123.751 30.1846C123.882 30.8533 124.159 31.488 124.345 32.1393C124.507 32.705 124.601 33.3921 124.762 33.9639L124.765 33.9621Z" fill="white"/>
<path d="M118.934 41.6726C118.695 41.601 118.834 40.8406 118.798 40.625C118.574 40.7629 118.384 40.9559 118.157 41.0929C117.361 41.5731 117.167 41.5094 116.345 41.6901C116.151 41.7329 116.062 41.9048 115.792 41.9389C115.554 41.9686 114.851 41.9694 114.624 41.9302C108.146 40.7944 107.221 32.4117 113.558 30.0798C114.887 29.8668 116.503 29.8232 117.716 30.3723C117.849 30.4325 118.73 31.1004 118.798 31.0227L118.816 25.7584C118.912 25.5087 119.24 25.6562 119.455 25.5925C119.636 25.5393 119.743 25.3865 119.926 25.3516C120.167 25.3062 120.695 25.2922 120.866 25.479V41.5425L120.731 41.6735H118.933L118.934 41.6726ZM117.109 32.1366C116.579 31.8372 116.85 31.9952 116.241 31.8905C115.393 31.7447 114.795 31.66 113.917 31.9123C113.511 32.0284 112.581 32.7024 112.295 33.0411C110.845 34.7548 110.979 37.8165 112.832 39.2177C113.459 39.6917 113.737 39.6883 114.417 39.8594C114.564 39.896 114.661 40.0602 114.892 40.0968C115.553 40.2025 117.123 39.8349 117.709 39.5233C117.94 39.4002 118.271 39.1452 118.426 38.9968C119.045 38.4032 118.721 38.4259 118.705 37.7048C118.671 36.2049 118.709 34.6937 118.761 33.1974C118.713 32.9302 117.807 32.2449 117.566 32.1751C117.416 32.1314 117.214 32.1969 117.109 32.1375V32.1366Z" fill="white"/>
<path d="M81.4892 25.3472V31.0655C81.4892 31.0759 81.6196 31.2401 81.6699 31.1545C81.7616 30.9834 82.0152 30.7878 82.1878 30.6778C83.0616 30.1208 84.5208 29.6424 85.5744 29.8057C86.1282 29.8912 87.2871 30.3199 87.7726 30.6429C87.956 30.7651 88.7031 31.4915 88.828 31.6652C89.256 32.2615 89.2461 32.5583 89.4187 33.1441C89.4547 33.2672 89.6704 33.399 89.6704 33.4235V41.5425L89.5356 41.6735H87.8274C87.8094 41.6735 87.5127 41.5163 87.5127 41.4989V33.5108C87.5127 33.42 86.7585 32.3916 86.5688 32.2449C86.0293 31.8285 84.8408 31.5421 84.1495 31.6408C84.0128 31.66 83.201 31.8678 83.0733 31.9088C82.9627 31.9437 82.9564 32.1043 82.9025 32.1314C82.8072 32.1812 82.6643 32.1515 82.578 32.2065C82.3694 32.3392 81.4892 33.1485 81.4892 33.3353V41.5417L81.3544 41.6726H79.6462C79.6309 41.6726 79.488 41.5382 79.4682 41.4963L79.4277 26.0072C79.5185 25.4345 79.8251 25.6955 80.1676 25.5908C80.3492 25.5349 80.458 25.383 80.6387 25.3498C80.8968 25.3027 81.2204 25.3734 81.4892 25.3463V25.3472Z" fill="white"/>
<path d="M157.592 36.6091C157.402 36.6606 157.519 37.105 157.572 37.2412C157.842 37.9344 158.414 38.8554 158.998 39.257C159.883 39.8672 161.162 40.2487 162.26 40.0933C162.605 40.0444 163.803 39.676 164.105 39.5276C164.383 39.3906 164.511 39.037 164.778 39.0509C165.101 39.1077 165.263 39.5617 165.456 39.7799C165.524 39.855 165.661 39.8183 165.704 39.8646C165.811 39.9807 165.989 40.3736 165.895 40.5246C165.81 40.5752 165.678 40.5735 165.604 40.6337C165.072 41.0659 164.592 41.2117 163.936 41.4587C162.08 42.1571 160.486 42.1117 158.707 41.1977C157.209 40.4277 156.581 39.642 155.867 38.1125C155.778 37.9221 155.432 37.1993 155.392 37.0002C155.351 36.8012 155.343 34.7426 155.388 34.5741C155.412 34.4824 155.606 34.4894 155.647 34.3724C155.708 34.1978 155.623 33.9665 155.661 33.7875C155.676 33.7186 155.817 33.7282 155.867 33.6208C156.012 33.3117 156.568 32.079 156.767 31.9166C157.547 31.2785 158.188 30.7119 159.341 30.2745C162.693 29.0043 165.597 31.1143 166.715 34.0512C166.585 34.6728 167.185 35.8243 166.941 36.3455C166.919 36.3909 166.692 36.6091 166.673 36.6091H157.592ZM159.851 31.907C159.735 31.9463 159.732 32.1096 159.686 32.1349C159.589 32.189 159.43 32.1323 159.317 32.1707C159.266 32.1882 158.564 32.7652 158.486 32.8508C158.131 33.2393 157.95 33.702 157.768 34.1594C157.694 34.3436 157.413 34.4842 157.548 34.8622H164.83C164.934 34.6125 164.667 34.6108 164.652 34.5418C164.418 33.4645 164.11 33.014 163.248 32.3863C162.752 32.0258 162.578 32.0205 162.001 31.8905C161.54 31.7857 161.302 31.6408 160.733 31.7132" fill="white"/>
<path d="M101.088 41.4544C101.002 41.7521 99.4465 41.7337 99.1732 41.6552C98.819 41.553 98.9511 41.237 99.0033 40.9995C99.0752 40.6704 98.3416 41.1156 98.2661 41.1628C98.16 41.2291 98.1366 41.395 98.0575 41.4125C97.0236 41.6412 95.8899 42.1257 94.6645 41.9302C94.5225 41.9075 93.7772 41.7058 93.5992 41.6552C93.5183 41.6325 92.1832 40.9148 92.1221 40.8581C92.0825 40.8206 92.1014 40.6975 92.0636 40.6634C90.4175 39.1452 90.7681 36.5934 92.6651 35.4166C93.6019 34.8352 95.2021 34.7382 96.3718 34.7723C96.9804 34.7906 97.474 34.8771 97.9739 35.0525C98.3308 35.1774 98.6401 34.9844 98.7965 35.3869L99.0158 35.2516C98.7533 34.3332 99.2109 33.3397 98.605 32.5138C98.5663 32.4605 97.9649 31.9699 97.9226 31.9551C97.7176 31.8809 97.5423 31.9315 97.3769 31.8922C97.2942 31.8721 97.3041 31.7473 97.2501 31.7211C96.9885 31.5945 95.5402 31.584 95.2039 31.6373C94.9729 31.674 94.8758 31.8372 94.7293 31.8748C94.2681 31.9909 93.9336 31.9917 93.4257 32.1803C93.1182 32.2947 92.8844 32.5932 92.4151 32.5103C92.0897 32.4527 92.2488 32.2013 92.1391 31.9874C91.9647 31.6469 91.6725 31.4915 91.838 30.9441C92.2165 30.8682 92.5707 30.6997 92.9285 30.5626C93.993 30.154 95.7955 29.6267 96.993 29.8057C98.2984 30.0013 99.3566 30.4578 100.25 31.4051C100.291 31.4478 100.259 31.5779 100.301 31.6128C100.358 31.66 100.506 31.6128 100.535 31.6417C100.586 31.6914 100.524 31.9001 100.562 32.0144C100.603 32.1375 100.799 32.1271 100.821 32.217C100.862 32.3785 100.779 32.5985 100.836 32.794C100.872 32.9171 101.088 33.049 101.088 33.0734V41.4544ZM98.1474 39.6027C98.3317 39.5067 98.649 39.4953 98.8396 39.2692C99.0716 38.9933 98.8666 37.4603 98.9197 37.0125C98.8567 36.837 97.519 36.3752 97.2681 36.3463C96.7215 36.2844 95.1266 36.2844 94.607 36.3856C94.518 36.4031 93.6082 36.8588 93.5443 36.9199C93.5228 36.94 93.2036 37.339 93.1937 37.3652C93.1568 37.4638 93.1964 37.5895 93.1488 37.7187C93.1398 37.7423 93.0157 37.7423 93.0004 37.8034C92.9195 38.1264 93.0678 38.9226 93.2297 39.2238C93.3295 39.4098 94.197 40.0252 94.4137 40.0785C94.723 40.1553 96.8204 40.1518 97.1746 40.0951C97.2492 40.0829 97.8669 39.8611 97.9721 39.8192C98.0961 39.7694 98.0988 39.628 98.1483 39.6018L98.1474 39.6027Z" fill="white"/>
<path d="M145.905 41.6726C145.66 41.6063 145.651 41.1462 145.682 40.9375C145.649 40.6372 144.846 41.3278 144.777 41.3627C144.041 41.7285 142.089 42.1065 141.249 41.9171C141.084 41.8795 140.979 41.7259 140.851 41.6927C140.082 41.4989 139.599 41.4002 138.912 40.8869C138.822 40.8197 138.551 40.398 138.449 40.2723C138.269 40.0488 137.792 39.4194 137.762 39.1898C137.731 38.9462 137.719 37.4577 137.767 37.2813C137.791 37.1923 137.954 37.1958 137.992 37.1347C138.077 36.9976 137.998 36.8265 138.062 36.7174C138.248 36.3961 139.095 35.6008 139.457 35.3921C140.45 34.8221 141.891 34.7278 143.122 34.7723C143.842 34.7985 144.591 34.9521 145.255 35.1294C145.341 35.1521 145.527 35.6078 145.765 35.2516C145.586 34.5767 145.719 33.7465 145.589 33.0743C145.533 32.7801 144.842 31.997 144.538 31.9123C144.363 31.8634 144.179 31.9289 144.035 31.8974C143.937 31.8756 143.975 31.6722 143.751 31.6312C143.389 31.5648 141.956 31.6085 141.615 31.7272C141.188 31.8765 140.456 31.9664 140.019 32.2065C139.961 32.2388 139.961 32.3671 139.857 32.416C139.65 32.5138 139.029 32.5636 138.894 32.3313C138.829 32.2178 138.872 32.0563 138.826 31.9612C138.673 31.6504 138.42 31.4182 138.483 30.9869C138.79 30.9354 139.028 30.7337 139.296 30.6281C140.328 30.2186 142.677 29.5874 143.818 29.8197C144.215 29.9 144.875 30.1401 145.237 30.2754C146.177 30.6263 146.827 31.0768 147.261 31.9734C147.329 32.1148 147.75 32.9285 147.75 32.9861V41.5417L147.615 41.6726H145.907H145.905ZM145.566 39.2919C145.71 39.1435 145.74 37.0832 145.642 36.9522L144.179 36.3647C142.888 36.3769 140.747 36.0225 139.957 37.2482C139.578 37.8366 139.608 38.9191 140.117 39.4377C140.148 39.4683 140.585 39.8131 140.616 39.8236C140.728 39.8629 140.888 39.8044 140.986 39.8594C141.032 39.8856 141.035 40.0479 141.151 40.0872C141.33 40.1483 143.726 40.1317 144.001 40.0802C144.111 40.0593 144.761 39.7066 144.88 39.6324C145 39.5582 145.531 39.3277 145.566 39.291V39.2919Z" fill="white"/>
<path d="M10.9718 23.0232C11.8205 23.6073 12.2763 24.9308 12.0821 25.912C11.9868 26.3966 10.9583 27.363 10.9169 27.5743C10.6823 28.7677 11.3575 31.2174 10.4395 32.1262C10.2283 32.3357 9.90641 32.3567 9.72391 32.437C9.5414 32.5173 9.49915 32.7032 9.25911 32.6832C9.21775 32.6797 8.56685 32.4073 8.49673 32.3663C8.38435 32.3017 7.79638 31.8067 7.77211 31.7394C7.71097 31.5683 7.60219 30.9249 7.58601 30.7189C7.53656 30.0947 7.73345 27.7873 7.55544 27.4739C7.42957 27.253 6.86768 26.8383 6.67169 26.4568C5.40315 23.9958 8.46346 21.2973 10.9727 23.0241L10.9718 23.0232Z" fill="white"/>
<path d="M155.66 31.6766C155.634 31.763 155.443 31.8756 155.338 31.8974C155.102 31.9455 155.153 31.7473 154.931 31.6888C154.593 31.5997 153.95 31.5875 153.624 31.7063C153.497 31.7525 153.5 31.8809 153.438 31.8931C153.176 31.9455 152.677 31.9332 152.445 32.1847C152.405 32.2274 152.44 32.3497 152.4 32.3916C152.346 32.4474 152.186 32.4282 152.113 32.5077C151.992 32.6395 151.254 33.7797 151.254 33.8591V41.5417L151.119 41.6726H149.411C149.396 41.6726 149.253 41.5382 149.233 41.4963V30.3251C149.438 29.8747 150.72 30.0894 151.171 30.099C151.333 30.2082 151.234 30.9144 151.255 31.1536C151.267 31.2837 151.184 31.4051 151.389 31.371C151.457 31.3509 151.537 31.0672 151.646 30.9642C152.437 30.2169 153.874 29.6032 154.982 29.8031C155.089 29.8223 155.66 30.1514 155.66 30.1924V31.6766Z" fill="white"/>
<path d="M108.91 30.0615V31.7639C108.91 32.1332 108.204 31.6678 108.128 31.6504C107.801 31.5771 107.14 31.6155 106.822 31.7263C106.762 31.7473 106.761 31.8695 106.687 31.8896C106.24 32.0075 105.79 32.093 105.43 32.4431C105.165 32.6998 104.991 33.2934 104.84 33.5309C104.805 33.5859 104.595 33.64 104.595 33.6845V41.5417L104.46 41.6726H102.752C102.679 41.6726 102.488 41.395 102.523 41.2841C102.685 37.8034 102.34 34.176 102.488 30.7163C102.535 29.6241 103.683 30.1593 104.511 30.0999L104.639 31.371C104.819 31.2191 104.914 31.0026 105.085 30.8437C105.863 30.1244 107.255 29.5953 108.324 29.8013C108.542 29.8432 108.651 30.113 108.911 30.0624L108.91 30.0615Z" fill="white"/>
</g>
<defs>
<clipPath id="clip0_512_1069">
<rect width="167" height="42" fill="white"/>
</clipPath>
</defs>
</svg>
