<svg width="115" height="32" viewBox="0 0 115 32" fill="none" xmlns="http://www.w3.org/2000/svg">
<g clip-path="url(#clip0_108_5541)">
<mask id="mask0_108_5541" style="mask-type:luminance" maskUnits="userSpaceOnUse" x="0" y="0" width="25" height="31">
<path d="M24.866 0H0V30.885H24.866V0Z" fill="white"/>
</mask>
<g mask="url(#mask0_108_5541)">
<path d="M17.181 25.7838L15.281 30.8768C14.923 30.8768 14.599 30.8958 14.281 30.8768C11.1065 30.6643 8.07729 29.4675 5.61481 27.4529C3.15234 25.4383 1.37914 22.7062 0.541985 19.6368C0.419985 19.1858 0.331985 18.7248 0.228985 18.2678C0.199985 18.1158 0.0839851 17.2598 0.0589851 16.9728C-0.123402 14.972 0.105282 12.955 0.730985 11.0458C1.06299 10.0348 1.45399 9.04579 1.83099 8.04579C2.60165 5.97046 3.37632 3.89612 4.15499 1.82279C4.35499 1.28879 4.55499 0.753791 4.74799 0.216791C4.76085 0.150924 4.79778 0.0922085 4.85158 0.0520903C4.90538 0.0119721 4.97219 -0.00667269 5.03899 -0.000209023C6.69999 0.00579098 8.36398 -0.000209023 10.026 0.00579098C10.101 0.00579098 10.176 0.015791 10.282 0.023791C10.253 0.123791 10.235 0.202791 10.206 0.279791C9.17065 3.04846 8.13532 5.81712 7.09999 8.58579C6.69999 9.66279 6.28499 10.7378 5.89999 11.8198C5.30948 13.3288 5.09363 14.9584 5.27093 16.5691C5.44823 18.1797 6.01339 19.7234 6.91799 21.0678C7.69309 22.305 8.73097 23.3565 9.958 24.1477C11.185 24.9389 12.5711 25.4503 14.018 25.6458C14.5074 25.7115 15.0002 25.7492 15.494 25.7588C15.954 25.7768 16.414 25.7588 16.875 25.7638C16.965 25.7638 17.054 25.7748 17.182 25.7828" fill="black"/>
<path d="M17.462 10.3187C17.133 11.1977 16.812 12.0387 16.503 12.8827C16.194 13.7267 15.855 14.5607 15.555 15.4577H21.014C20.964 15.7297 19.247 20.2577 19.194 20.4157C19.1808 20.4741 19.1461 20.5253 19.0968 20.5592C19.0475 20.5931 18.9872 20.6072 18.928 20.5987C18.604 20.5907 18.28 20.5987 17.956 20.5987C17.198 20.5987 16.439 20.6067 15.681 20.5987C14.8401 20.606 14.01 20.4093 13.2618 20.0254C12.5136 19.6415 11.8697 19.0819 11.3853 18.3945C10.9009 17.7071 10.5904 16.9125 10.4804 16.0788C10.3705 15.2451 10.4643 14.3972 10.754 13.6077C11.129 12.5847 11.516 11.5657 11.9 10.5447C11.99 10.3047 11.993 10.3047 12.246 10.3037H17.231C17.29 10.3037 17.348 10.3127 17.46 10.3217" fill="black"/>
<path d="M21.302 0.0259297L19.402 5.12593C19.529 5.13593 19.625 5.15093 19.722 5.15093C20.722 5.15093 21.719 5.15093 22.713 5.15093H24.554C24.646 5.15093 24.738 5.15893 24.864 5.16393C24.75 5.62493 24.555 6.02993 24.408 6.44993C24.261 6.86993 24.092 7.29593 23.934 7.71893L23.46 8.98793L22.983 10.2669H17.502L19.413 5.15793C19.263 5.14693 19.156 5.13393 19.05 5.13293H14.272C14.172 5.13293 14.072 5.12493 13.942 5.11893C13.977 5.00093 13.998 4.91193 14.03 4.82593C14.606 3.2866 15.183 1.7476 15.761 0.20893C15.837 0.00892968 15.84 0.00292969 16.055 0.00292969C17.7343 0.00292969 19.4133 0.00292969 21.092 0.00292969C21.15 0.00292969 21.208 0.0139297 21.305 0.0239297" fill="black"/>
</g>
<path d="M41.368 26.2853L41.248 28.8283H37.098V17.2653H39.209V14.6503H31.989V17.2653H33.62V28.8273H31.989V31.4423H44.223L44.463 26.3093L41.368 26.2853ZM52.739 14.6513H45.998V17.2663H47.629V28.8283H45.998V31.4433H52.739V28.8283H51.107V17.2653H52.739V14.6513ZM67.683 14.6513H55.113V17.2663H56.744V28.8283H55.113V31.4433H61.854V28.8283H60.222V25.2063H65.283V22.5913H60.222V17.2663H64.588V19.1663H67.682L67.683 14.6513ZM81.908 14.6513H69.339V17.2663H70.969V28.8283H69.339V31.4433H76.08V28.8283H74.447V25.2063H79.508V22.5913H74.447V17.2663H78.813V19.1663H81.907L81.908 14.6513ZM82.748 14.6513V19.1613H85.866V17.2613H87.857V28.8233H86.249V31.4383H92.966V28.8233H91.382V17.2653H93.397V19.1653H96.491V14.6553L82.748 14.6513ZM97.548 22.9273C97.548 28.1323 100.834 31.7273 105.92 31.7273C110.957 31.7273 114.268 28.1533 114.268 22.9273C114.268 17.7463 110.982 14.3633 105.92 14.3633C100.858 14.3633 97.548 17.7453 97.548 22.9273ZM110.429 22.9513C110.429 26.3093 108.729 28.8513 105.847 28.8513C102.947 28.8513 101.361 26.2603 101.361 23.0223C101.361 19.6403 103.088 17.2413 105.943 17.2413C108.773 17.2423 110.429 19.6403 110.429 22.9513Z" fill="black"/>
<path d="M34.904 0.467047H31.989V8.25605H32.812V5.79705H34.904C36.885 5.79705 38.086 4.79705 38.086 3.13805C38.086 1.47905 36.885 0.467047 34.904 0.467047ZM34.877 5.07405H32.812V1.17905H34.877C36.435 1.17905 37.258 1.89105 37.258 3.13705C37.263 4.36205 36.44 5.07405 34.877 5.07405ZM42.054 8.31205C42.449 8.32562 42.8425 8.25773 43.2102 8.1126C43.5778 7.96746 43.9115 7.7482 44.1907 7.46846C44.4699 7.18871 44.6885 6.85448 44.8329 6.48659C44.9773 6.11869 45.0444 5.725 45.03 5.33005C45.0441 4.93609 44.977 4.54344 44.8326 4.17659C44.6883 3.80974 44.47 3.47656 44.1913 3.19781C43.9125 2.91906 43.5793 2.70072 43.2125 2.55641C42.8456 2.41211 42.453 2.34492 42.059 2.35905C41.6645 2.34471 41.2712 2.41167 40.9037 2.55576C40.5361 2.69985 40.2022 2.91799 39.9225 3.19663C39.6428 3.47527 39.4234 3.80844 39.278 4.17546C39.1325 4.54247 39.0641 4.93547 39.077 5.33005C39.0639 5.72518 39.1321 6.1188 39.2773 6.48651C39.4226 6.85422 39.6418 7.1882 39.9213 7.46775C40.2009 7.74731 40.5348 7.96649 40.9026 8.11172C41.2703 8.25695 41.6639 8.32513 42.059 8.31205H42.054ZM42.054 7.61205C41.7577 7.61738 41.4634 7.56117 41.1899 7.44698C40.9164 7.33279 40.6695 7.1631 40.4649 6.94863C40.2603 6.73416 40.1024 6.47959 40.0012 6.20099C39.9 5.92239 39.8577 5.62583 39.877 5.33005C39.8579 5.03401 39.9004 4.73721 40.0019 4.45845C40.1034 4.1797 40.2616 3.92505 40.4666 3.71063C40.6717 3.49621 40.919 3.3267 41.1929 3.21281C41.4668 3.09893 41.7614 3.04317 42.058 3.04905C42.3541 3.04334 42.6481 3.09932 42.9213 3.21342C43.1946 3.32751 43.4411 3.49723 43.6452 3.71177C43.8493 3.92632 44.0065 4.18099 44.1069 4.45959C44.2072 4.7382 44.2485 5.03463 44.228 5.33005C44.2485 5.62537 44.2072 5.92172 44.107 6.20026C44.0067 6.47879 43.8496 6.73342 43.6456 6.94795C43.4416 7.16247 43.1952 7.33221 42.922 7.44637C42.6489 7.56053 42.355 7.61661 42.059 7.61105L42.054 7.61205ZM54.343 2.40305L52.485 7.37705L50.615 2.40305H49.937L48.057 7.37705L46.22 2.40305H45.463L47.663 8.25605H48.408L50.255 3.45605L52.102 8.25605H52.847L55.061 2.40305H54.343ZM61.197 5.33005C61.2223 4.9447 61.1673 4.5583 61.0354 4.19532C60.9036 3.83235 60.6978 3.50071 60.4311 3.22142C60.1644 2.94212 59.8426 2.72126 59.4861 2.57281C59.1296 2.42436 58.7461 2.35157 58.36 2.35905C57.9732 2.35286 57.5893 2.42633 57.2322 2.57491C56.875 2.72348 56.5523 2.94397 56.284 3.22265C56.0157 3.50134 55.8077 3.83225 55.6728 4.1948C55.5379 4.55736 55.4791 4.94379 55.5 5.33005C55.4879 5.73255 55.5598 6.13316 55.711 6.50636C55.8623 6.87957 56.0896 7.21718 56.3785 7.49771C56.6674 7.77823 57.0115 7.99551 57.389 8.13572C57.7665 8.27592 58.169 8.33597 58.571 8.31205C58.9948 8.32863 59.417 8.25145 59.8075 8.08602C60.198 7.92059 60.5471 7.671 60.83 7.35505L60.385 6.84305C60.1606 7.09398 59.884 7.29276 59.5746 7.42544C59.2652 7.55811 58.9305 7.62146 58.594 7.61105C58.3091 7.62919 58.0235 7.59084 57.7535 7.4982C57.4835 7.40557 57.2344 7.26048 57.0207 7.07127C56.8069 6.88206 56.6327 6.65247 56.508 6.39569C56.3833 6.13892 56.3106 5.86002 56.294 5.57505H61.194C61.186 5.48605 61.197 5.39705 61.197 5.33005ZM58.36 3.03605C58.8928 3.02405 59.4091 3.22144 59.798 3.58584C60.1869 3.95024 60.4174 4.45259 60.44 4.98505H56.29C56.3119 4.45409 56.5408 3.9528 56.9277 3.58852C57.3146 3.22424 57.8287 3.02593 58.36 3.03605ZM63.567 3.54805V2.40305H62.81V8.25605H63.6V5.27405C63.5606 4.99756 63.5828 4.71577 63.6651 4.44888C63.7473 4.18199 63.8877 3.93661 64.076 3.73034C64.2643 3.52408 64.4959 3.36203 64.7542 3.25582C65.0125 3.14962 65.2911 3.10189 65.57 3.11605C65.626 3.11605 65.692 3.12705 65.759 3.12705V2.35905C65.3163 2.31322 64.87 2.40234 64.4788 2.61471C64.0876 2.82708 63.7698 3.15178 63.567 3.54805ZM72.235 5.32805C72.26 4.94277 72.2047 4.55651 72.0727 4.1937C71.9407 3.8309 71.7347 3.49946 71.468 3.22037C71.2012 2.94128 70.8794 2.72061 70.5229 2.57235C70.1664 2.42409 69.783 2.35145 69.397 2.35905C69.0102 2.35286 68.6263 2.42633 68.2692 2.57491C67.912 2.72348 67.5893 2.94397 67.321 3.22265C67.0527 3.50134 66.8447 3.83225 66.7098 4.1948C66.5749 4.55736 66.5161 4.94379 66.537 5.33005C66.5249 5.73255 66.5968 6.13316 66.748 6.50636C66.8993 6.87957 67.1266 7.21718 67.4155 7.49771C67.7044 7.77823 68.0485 7.99551 68.426 8.13572C68.8035 8.27592 69.206 8.33597 69.608 8.31205C70.0318 8.32863 70.454 8.25145 70.8445 8.08602C71.235 7.92059 71.5841 7.671 71.867 7.35505L71.423 6.84305C71.1986 7.09398 70.922 7.29276 70.6126 7.42544C70.3032 7.55811 69.9685 7.62146 69.632 7.61105C69.3471 7.62919 69.0615 7.59084 68.7915 7.4982C68.5215 7.40557 68.2724 7.26048 68.0587 7.07127C67.8449 6.88206 67.6707 6.65247 67.546 6.39569C67.4213 6.13892 67.3486 5.86002 67.332 5.57505H72.232C72.224 5.48605 72.235 5.39705 72.235 5.33005V5.32805ZM69.397 3.03605C69.9298 3.02405 70.4461 3.22144 70.835 3.58584C71.2239 3.95024 71.4544 4.45259 71.477 4.98505H67.327C67.3489 4.45409 67.5778 3.9528 67.9647 3.58852C68.3516 3.22424 68.8657 3.02593 69.397 3.03605ZM78.397 -0.00195312V3.51605C78.1573 3.14899 77.8271 2.84978 77.4384 2.64716C77.0496 2.44453 76.6152 2.34532 76.177 2.35905C75.7858 2.34639 75.3963 2.41499 75.0329 2.56051C74.6696 2.70603 74.3404 2.92531 74.0661 3.2045C73.7918 3.48369 73.5783 3.81672 73.4392 4.18258C73.3002 4.54843 73.2385 4.93914 73.258 5.33005C73.2384 5.72148 73.3 6.11274 73.4389 6.47922C73.5778 6.8457 73.7911 7.17947 74.0652 7.45955C74.3394 7.73962 74.6685 7.95994 75.032 8.10666C75.3954 8.25337 75.7852 8.3233 76.177 8.31205C76.6274 8.32892 77.0741 8.22542 77.4712 8.01221C77.8683 7.799 78.2013 7.48379 78.436 7.09905V8.25605H79.193V4.72069e-05L78.397 -0.00195312ZM76.24 7.61105C75.9435 7.61679 75.649 7.56092 75.3752 7.44697C75.1014 7.33303 74.8542 7.16349 74.6493 6.94909C74.4444 6.73469 74.2862 6.48009 74.1848 6.2014C74.0833 5.92271 74.0409 5.626 74.06 5.33005C74.0409 5.03401 74.0834 4.73721 74.1849 4.45845C74.2864 4.1797 74.4446 3.92505 74.6496 3.71063C74.8547 3.49621 75.102 3.3267 75.3759 3.21281C75.6498 3.09893 75.9444 3.04317 76.241 3.04905C76.5368 3.0444 76.8303 3.1011 77.1031 3.21556C77.3758 3.33002 77.6219 3.49977 77.8258 3.71408C78.0297 3.9284 78.187 4.18264 78.2877 4.46076C78.3884 4.73889 78.4304 5.03488 78.411 5.33005C78.4304 5.6253 78.3884 5.92137 78.2876 6.19957C78.1868 6.47777 78.0295 6.73206 77.8255 6.94639C77.6215 7.16072 77.3753 7.33044 77.1024 7.44484C76.8295 7.55923 76.5359 7.61583 76.24 7.61105ZM87.323 2.35905C86.8838 2.34428 86.4482 2.44299 86.0583 2.64566C85.6684 2.84833 85.3373 3.14811 85.097 3.51605V4.72069e-05H84.307V8.25605H85.064V7.09905C85.2987 7.48379 85.6318 7.799 86.0288 8.01221C86.4259 8.22542 86.8726 8.32892 87.323 8.31205C87.7144 8.32274 88.1039 8.25239 88.4668 8.10543C88.8298 7.95847 89.1584 7.73806 89.4322 7.45804C89.7059 7.17803 89.9188 6.84445 90.0574 6.47825C90.1961 6.11205 90.2576 5.72114 90.238 5.33005C90.2575 4.93949 90.1959 4.54912 90.0571 4.18355C89.9183 3.81798 89.7052 3.48514 89.4313 3.20601C89.1575 2.92688 88.8287 2.70751 88.4659 2.56174C88.103 2.41597 87.7139 2.34696 87.323 2.35905ZM87.267 7.61105C86.9704 7.61693 86.6758 7.56116 86.4019 7.44728C86.128 7.3334 85.8807 7.16388 85.6756 6.94947C85.4706 6.73505 85.3124 6.4804 85.2109 6.20164C85.1094 5.92288 85.0669 5.62609 85.086 5.33005C85.0669 5.03401 85.1094 4.73721 85.2109 4.45845C85.3124 4.1797 85.4706 3.92505 85.6756 3.71063C85.8807 3.49621 86.128 3.3267 86.4019 3.21281C86.6758 3.09893 86.9704 3.04317 87.267 3.04905C87.5634 3.04407 87.8575 3.10045 88.1311 3.21465C88.4046 3.32884 88.6515 3.49838 88.8563 3.7126C89.0612 3.92682 89.2195 4.1811 89.3213 4.45946C89.4231 4.73781 89.4663 5.03422 89.448 5.33005C89.4663 5.62588 89.4231 5.92228 89.3213 6.20064C89.2195 6.47899 89.0612 6.73327 88.8563 6.94749C88.6515 7.16172 88.4046 7.33125 88.1311 7.44545C87.8575 7.55964 87.5634 7.61602 87.267 7.61105ZM95.824 2.40405L93.624 7.37805L91.424 2.40405H90.601L93.216 8.24605L92.96 8.81305C92.626 9.54705 92.27 9.79205 91.747 9.79205C91.5481 9.79444 91.3508 9.75621 91.1671 9.67969C90.9835 9.60317 90.8174 9.48998 90.679 9.34705L90.305 9.93605C90.6908 10.2946 91.2026 10.4865 91.729 10.47C92.564 10.47 93.187 10.103 93.676 8.95705L96.602 2.40305L95.824 2.40405Z" fill="black"/>
</g>
<defs>
<clipPath id="clip0_108_5541">
<rect width="114.266" height="31.729" fill="white"/>
</clipPath>
</defs>
</svg>
